PathFileType	4	(X/Y/Z)	..\data\2014053\dynamic\2014053_C4_04.trc
DataRate	CameraRate	NumFrames	NumMarkers	Units	OrigDataRate	OrigDataStartFrame	OrigNumFrames
100.000000	100.000000	4	52	mm	100.000000	113	181
Frame#	Time	L_IAS			L_IPS			R_IPS			R_IAS			L_FTC			L_FLE			L_FME			L_FAX			L_TTC			L_FAL			L_TAM			L_FCC			L_FM1			L_FM2			L_FM5			R_FTC			R_FLE			R_FME			R_FAX			R_TTC			R_FAL			R_TAM			R_FCC			R_FM1			R_FM2			R_FM5			CV7			TV10			SXS			SJN			L_SIA			L_SRS			L_SAA			L_SAE			L_HLE			L_HME			L_UOA			L_RSP			L_UHE			L_HM2			L_HM5			R_SIA			R_SRS			R_SAA			R_SAE			R_HLE			R_HME			R_UOA			R_RSP			R_UHE			R_HM2			R_HM5			
		X1	Y1	Z1	X2	Y2	Z2	X3	Y3	Z3	X4	Y4	Z4	X5	Y5	Z5	X6	Y6	Z6	X7	Y7	Z7	X8	Y8	Z8	X9	Y9	Z9	X10	Y10	Z10	X11	Y11	Z11	X12	Y12	Z12	X13	Y13	Z13	X14	Y14	Z14	X15	Y15	Z15	X16	Y16	Z16	X17	Y17	Z17	X18	Y18	Z18	X19	Y19	Z19	X20	Y20	Z20	X21	Y21	Z21	X22	Y22	Z22	X23	Y23	Z23	X24	Y24	Z24	X25	Y25	Z25	X26	Y26	Z26	X27	Y27	Z27	X28	Y28	Z28	X29	Y29	Z29	X30	Y30	Z30	X31	Y31	Z31	X32	Y32	Z32	X33	Y33	Z33	X34	Y34	Z34	X35	Y35	Z35	X36	Y36	Z36	X37	Y37	Z37	X38	Y38	Z38	X39	Y39	Z39	X40	Y40	Z40	X41	Y41	Z41	X42	Y42	Z42	X43	Y43	Z43	X44	Y44	Z44	X45	Y45	Z45	X46	Y46	Z46	X47	Y47	Z47	X48	Y48	Z48	X49	Y49	Z49	X50	Y50	Z50	X51	Y51	Z51	X52	Y52	Z52	

114	1.13	1094.958251953125	936.1362915039065	-264.4389343261719	880.3813476562502	959.5530395507815	-216.3397216796876	877.495300292969	964.0521240234377	-113.2134094238282	1079.949096679688	936.2381591796877	-37.44037246704102	1037.763305664063	865.7352294921877	-349.3623657226563	1162.646118164063	484.3027648925782	-307.9310913085938	1151.83837890625	476.2929077148439	-169.2748718261719	1158.780029296875	419.7567749023439	-313.2757568359376	1225.028930664063	430.9978942871095	-251.4808959960938	1261.272338867188	78.44802093505861	-280.3199768066407	1285.135620117188	97.77893829345706	-196.5936431884766	1239.809814453125	16.75502967834473	-221.1168518066407	1418.595703125	77.93917846679689	-185.8890686035157	1413.74365234375	98.6267013549805	-241.0488739013672	1387.891723632813	66.40170288085939	-292.1130676269532	996.2453613281252	860.047790527344	37.36894989013673	959.8291015625002	467.3100891113282	-50.98083114624025	934.8704833984377	468.603485107422	-188.0700836181641	921.0888671875002	411.0138549804689	-53.6655731201172	970.0834960937502	379.6747131347657	-121.4185409545899	792.6385498046877	65.54634857177736	-96.5389099121094	801.6082763671877	75.0121307373047	-184.575912475586	734.5628662109376	26.26401901245118	-152.5525512695313	924.0466918945315	18.69986915588379	-193.0560302734376	944.1630859375002	33.72446441650391	-139.6381530761719	902.8864746093752	19.40417671203614	-75.19468688964845	922.8303222656252	1436.574951171875	-161.7898559570313	875.8923950195315	1205.147216796875	-162.208984375	1087.46728515625	1156.06201171875	-174.4757995605469	1034.3564453125	1366.093383789063	-173.6569366455078	854.5614013671877	1252.063110351563	-244.5262756347657	875.499450683594	1376.507446289063	-249.2405700683594	929.141052246094	1375.089477539063	-349.9512939453126	973.4424438476565	1379.195434570313	-356.8332214355469	907.5382080078127	1065.0517578125	-392.6426086425782	906.3006591796877	1054.5732421875	-309.5789794921876	882.2235107421877	1033.69482421875	-350.0056457519532	1003.779663085938	827.5852661132815	-380.5193786621094	942.9497070312502	834.3138427734377	-419.8643493652345	1025.060302734375	744.3524780273439	-395.0125122070314	935.0405273437502	755.5321044921876	-419.2477111816407	863.2447509765627	1253.299560546875	-59.54241943359376	889.446472167969	1375.827514648438	-66.85317230224611	959.6356201171877	1379.995849609375	15.34641361236573	1009.545593261719	1376.779663085938	21.54314994812012	1021.038818359375	1063.302734375	83.98678588867189	996.3350830078127	1045.466064453125	5.801128864288331	994.4016723632815	1020.596496582031	51.93511962890626	1203.64599609375	885.499450683594	48.72072601318361	1148.98876953125	865.9936523437502	92.02215576171876	1261.56787109375	814.9731445312502	46.3089714050293	1176.302368164063	788.4094848632815	87.25039672851564	
115	1.14	1106.605834960938	933.8699340820315	-264.5931396484376	891.7088623046877	957.972595214844	-217.146713256836	888.3533325195315	962.3298950195315	-114.1246337890625	1090.193481445313	933.694030761719	-37.0372428894043	1049.271118164063	863.712097167969	-350.1788940429688	1172.6728515625	482.1116943359376	-307.7915344238282	1160.6953125	474.1559143066407	-169.2069244384766	1170.120483398438	417.3611145019532	-313.1670532226563	1235.646850585938	430.2545776367189	-250.8149108886719	1281.31591796875	78.71652221679689	-278.2851562500001	1304.3681640625	99.04273986816409	-194.6065368652344	1261.170288085938	16.68551826477051	-218.7935943603516	1438.335571289063	82.45157623291017	-182.9445495605469	1433.421142578125	102.694450378418	-238.2116851806641	1408.654907226563	69.47631835937501	-289.3066711425782	1005.107849121094	857.896423339844	36.90339279174805	965.8779907226565	465.7608032226564	-51.79274368286134	943.182556152344	466.9746704101564	-189.1790466308594	926.7620849609377	409.9668579101564	-54.82328414916994	975.8287353515627	377.8583984375001	-122.2332382202149	793.1271972656252	66.67352294921876	-97.14004516601565	802.2929687500002	75.81809234619142	-185.1901397705078	734.6912231445314	27.88827133178712	-153.1825714111328	924.3684692382815	18.73594284057618	-193.0988311767579	944.3806152343752	33.73216247558594	-139.6689758300782	902.8181762695315	19.82113838195801	-75.51889801025392	933.5584106445315	1434.6640625	-162.6664276123047	886.841491699219	1203.075439453125	-163.1058502197266	1098.258178710938	1154.149536132813	-174.6370544433594	1045.228759765625	1364.271240234375	-174.20703125	865.654968261719	1249.891845703125	-245.4614410400391	886.4660644531252	1374.486938476563	-250.259750366211	940.4680175781252	1372.870849609375	-350.7953491210938	984.676940917969	1377.028198242188	-357.6329650878907	918.6517333984377	1062.846557617188	-393.0320739746095	917.3144531250002	1052.505126953125	-309.9671020507813	893.2515869140627	1031.666259765625	-350.3720703125001	1013.937805175781	825.055358886719	-380.2657165527344	953.2849121093752	831.9575195312502	-419.8685913085939	1034.434204101563	741.4468383789064	-393.6400146484376	944.754333496094	753.2520141601564	-418.6778869628907	873.704284667969	1251.353393554688	-60.44841384887697	899.9019775390627	1374.039184570313	-67.78818511962892	969.9307861328127	1378.024658203125	14.65830898284912	1019.843566894531	1374.837158203125	21.0434856414795	1031.6904296875	1061.225463867188	83.06130981445314	1007.020935058594	1043.3828125	4.84975290298462	1005.241027832031	1018.396850585938	50.9380569458008	1215.339965820313	884.7762451171877	47.0854835510254	1160.344848632813	864.6721801757815	90.25333404541017	1273.86767578125	814.7439575195315	44.38389205932618	1188.978515625	787.396911621094	85.19680786132814	
116	1.15	1118.31103515625	931.5637207031252	-264.7750244140626	903.227233886719	956.417419433594	-218.0111389160157	899.3706665039065	960.6706542968752	-115.0604400634766	1100.607421875	931.1284179687502	-36.62077713012696	1060.780151367188	861.7174072265627	-351.0477905273438	1183.039916992188	480.107879638672	-307.6567993164063	1170.336791992188	472.3601379394532	-169.1944274902344	1181.536010742188	415.1770629882814	-312.9487915039063	1246.50634765625	429.449188232422	-250.2662048339844	1299.347778320313	78.82528686523439	-276.1543273925782	1321.775634765625	99.91542053222659	-192.5728454589844	1280.211303710938	16.64124870300293	-216.3997344970704	1456.067138671875	85.89273834228517	-180.0478057861328	1451.1640625	105.7087631225586	-235.4268951416016	1427.27685546875	71.66378784179689	-286.5039367675782	1014.039489746094	855.818054199219	36.42414474487305	971.9451904296877	464.3350830078126	-52.54944610595705	951.4925537109377	465.4421997070314	-190.2117614746094	932.4263305664065	409.0506591796876	-55.89924240112306	981.5696411132815	376.1489257812501	-122.9500350952149	793.6345214843752	68.01085662841798	-97.67848968505862	803.0247192382815	76.82312774658205	-185.7620239257813	734.7900390625001	29.75983810424805	-153.7741394042969	924.7248535156252	18.77469062805176	-193.1167297363282	944.6511230468752	33.74916076660157	-139.6720886230469	902.7999267578127	20.24403381347657	-75.8239212036133	944.3590087890627	1432.78271484375	-163.5963897705078	897.9683837890627	1200.999389648438	-163.99560546875	1109.2177734375	1152.2841796875	-174.8953399658203	1056.2021484375	1362.504760742188	-174.8416595458985	876.846618652344	1247.685791015625	-246.3941345214844	897.4779052734377	1372.44970703125	-251.2926483154297	951.7351074218752	1370.654174804688	-351.7038879394532	995.9043579101565	1374.861328125	-358.4932556152344	929.9069824218752	1060.603637695313	-393.465301513672	928.4746704101565	1050.3994140625	-310.4070434570313	904.4373779296877	1029.599609375	-350.7855529785157	1024.319580078125	822.5459594726565	-380.0391540527344	963.8782348632815	829.6065063476565	-419.9451293945314	1044.089721679688	738.5964355468751	-392.3311462402345	954.7584228515627	750.9604492187501	-418.1877441406251	884.335876464844	1249.376831054688	-61.37756347656251	910.4741210937502	1372.266357421875	-68.74962615966798	980.3587646484377	1376.100219726563	13.91061210632325	1030.260864257813	1372.924682617188	20.49996566772461	1042.224975585938	1059.141357421875	82.06295776367189	1017.651184082031	1041.314819335938	3.813328742980958	1015.939086914063	1016.237426757813	49.85808181762697	1226.713745117188	883.8339843750002	45.47264099121094	1171.366821289063	863.1877441406252	88.49968719482423	1285.738037109375	814.2290039062502	42.51247024536134	1201.18408203125	786.1864013671877	83.15956878662111	
117	1.16	1130.082397460938	929.2736816406252	-265.0031127929688	914.9492187500002	954.9376220703127	-218.9466552734376	910.5664672851565	959.1416625976565	-116.035026550293	1111.234619140625	928.6010742187502	-36.23468399047852	1072.296142578125	859.8061523437502	-351.9517211914063	1193.751220703125	478.3057250976564	-307.4924011230469	1180.847534179688	470.9404296875001	-169.1841735839844	1193.032836914063	413.2207946777345	-312.5858764648438	1257.64111328125	428.5898437500001	-249.8012084960938	1315.356079101563	78.66433715820314	-273.9954223632813	1337.355102539063	100.2713470458985	-190.5365142822266	1296.875366210938	16.50821876525879	-214.0207214355469	1471.801513671875	88.06164550781251	-177.2397003173828	1466.98779296875	107.4835510253907	-232.7300720214844	1443.752197265625	72.79158020019533	-283.7471313476563	1023.090942382813	853.8549804687502	35.91257858276368	978.1152954101565	463.0582580566407	-53.27228164672853	959.7686157226565	464.0582275390626	-191.1710205078125	938.148864746094	408.2971191406251	-56.89391326904298	987.3460083007815	374.5651550292969	-123.5778198242188	794.173278808594	69.58921051025392	-98.11816406250003	803.8254394531252	78.05826568603517	-186.2521362304688	734.8676757812501	31.92960929870606	-154.2801818847657	925.0924072265627	18.80197906494141	-193.1126861572266	944.969909667969	33.76483917236329	-139.6517791748047	902.832702636719	20.63947868347168	-76.09694671630861	955.2385253906252	1430.964721679688	-164.5762634277344	909.2749633789065	1198.958618164063	-164.8809356689453	1120.371826171875	1150.5078125	-175.2728576660157	1067.279418945313	1360.827392578125	-175.5630187988282	888.134948730469	1245.492065429688	-247.3227081298829	908.539733886719	1370.43896484375	-252.3373107910157	962.9563598632815	1368.481811523438	-352.6732788085938	1007.131042480469	1372.738403320313	-359.4141845703126	941.303405761719	1058.365966796875	-393.9305725097657	939.7966308593752	1048.299194335938	-310.8852539062501	915.7869262695315	1027.537719726563	-351.2303771972657	1034.921997070313	820.0930786132815	-379.8452453613282	974.715759277344	827.2976074218752	-420.0814208984376	1054.036254882813	735.8452148437501	-391.1423339843751	965.0496215820315	748.7005004882814	-417.7984008789064	895.1547851562502	1247.401611328125	-62.32838439941408	921.1773071289065	1370.534423828125	-69.7341766357422	990.9354248046877	1374.250244140625	13.09801197052002	1040.810791015625	1371.074584960938	19.90681266784668	1052.648681640625	1057.085205078125	80.98921966552736	1028.22802734375	1039.299438476563	2.688244104385376	1026.497192382813	1014.155639648438	48.69165039062501	1237.762573242188	882.6792602539065	43.89117813110352	1182.06494140625	861.559753417969	86.77499389648439	1297.171020507813	813.4295654296877	40.7066993713379	1212.892456054688	784.7835083007815	81.15918731689455	
